<svg width="155" height="40" viewBox="0 0 155 40" fill="none" xmlns="http://www.w3.org/2000/svg">
<path d="M56.2008 22.9382C56.4833 22.9382 56.703 22.7279 56.703 22.4574V19.6327C56.703 19.3623 56.4833 19.1519 56.2008 19.1519H50.2059V15.9967H58.0212C58.3037 15.9967 58.5234 15.7863 58.5234 15.5159V12.7212C58.5234 12.4508 58.3037 12.2404 58.0212 12.2404H46.5022C46.2197 12.2404 46 12.4508 46 12.7212V29.3088C46 29.5793 46.2197 29.7896 46.5022 29.7896H58.0212C58.3037 29.7896 58.5234 29.5793 58.5234 29.3088V26.4841C58.5234 26.2137 58.3037 26.0033 58.0212 26.0033H50.2059V22.9382H56.2008Z" fill="#1A3866"/>
<path d="M73.3401 29.3689C73.497 29.6394 73.7795 29.7896 74.0933 29.7896H77.9539C78.1737 29.7896 78.2992 29.5492 78.1737 29.399L72.5554 21.1052L78.1737 12.6611C78.2992 12.4808 78.1737 12.2404 77.9539 12.2404H74.0933C73.7795 12.2404 73.497 12.3906 73.3401 12.6611L70.3583 17.4391L67.4079 12.6611C67.251 12.3906 66.9685 12.2404 66.6546 12.2404H62.794C62.5743 12.2404 62.4488 12.4808 62.5743 12.6611L68.1926 21.1052L62.5743 29.399C62.4488 29.5492 62.5743 29.7896 62.794 29.7896H66.6546C66.9685 29.7896 67.251 29.6394 67.4079 29.3689L70.3583 24.5309L73.3401 29.3689Z" fill="#1A3866"/>
<path d="M86.2617 29.3088C86.2617 29.5793 86.4814 29.7896 86.7639 29.7896H89.9968C90.2792 29.7896 90.4989 29.5793 90.4989 29.3088V15.9666H94.799C95.0814 15.9666 95.3012 15.7563 95.3012 15.4858V12.6912C95.3012 12.4207 95.0814 12.2103 94.799 12.2103H82.0872C81.8047 12.2103 81.585 12.4207 81.585 12.6912V15.4858C81.585 15.7563 81.8047 15.9666 82.0872 15.9666H86.2617V29.3088Z" fill="#1A3866"/>
<path d="M107.34 12C100.466 12 98.4261 17.409 98.4261 20.985C98.4261 24.6811 100.466 30 107.34 30C114.245 30 116.285 24.6811 116.285 20.985C116.285 17.409 114.245 12 107.34 12ZM107.34 26.1836C103.228 26.1836 102.632 22.2771 102.632 20.985C102.632 19.6928 103.228 15.8164 107.34 15.8164C111.42 15.8164 112.017 19.6928 112.017 20.985C112.017 22.2771 111.42 26.1836 107.34 26.1836Z" fill="#1A3866"/>
<path d="M128.572 26.2137C126.155 26.2137 125.559 23.8698 125.559 22.9983V12.7212C125.559 12.4508 125.339 12.2404 125.057 12.2404H121.824C121.541 12.2404 121.321 12.4508 121.321 12.7212V22.9983C121.321 25.9432 123.205 29.9699 128.572 29.9699C133.97 29.9699 135.854 25.9432 135.854 22.9983V12.7212C135.854 12.4508 135.634 12.2404 135.351 12.2404H132.056C131.773 12.2404 131.554 12.4508 131.554 12.7212V22.9983C131.554 23.8698 130.989 26.2137 128.572 26.2137Z" fill="#1A3866"/>
<path d="M145.709 23.7496H147.593L150.166 29.3389C150.261 29.6093 150.543 29.7896 150.857 29.7896H154.466C154.686 29.7896 154.843 29.5492 154.749 29.3689L151.642 23.0885C153.525 22.1569 155 20.3239 155 17.9499C155 15.606 153.525 12.2404 148.44 12.2404H142.006C141.723 12.2404 141.504 12.4508 141.504 12.7212V29.3088C141.504 29.5793 141.723 29.7896 142.006 29.7896H145.207C145.49 29.7896 145.709 29.5793 145.709 29.3088V23.7496ZM145.709 19.9633V15.9666H148.597C150.386 15.9666 150.826 17.2588 150.826 17.9499C150.826 18.5509 150.386 19.9633 148.691 19.9633H145.709Z" fill="#1A3866"/>
<path d="M15.9916 0C7.17616 0 0 7.19497 0 16.0335C0 17.0398 0.0920021 18.0545 0.28437 19.044C0.292734 19.1027 0.326189 19.2788 0.3931 19.5807C0.635651 20.6625 0.995295 21.7275 1.46367 22.7421C3.18662 26.8092 6.97543 33.0566 15.2891 39.7484C15.4982 39.9161 15.7491 40 16 40C16.2509 40 16.5018 39.9161 16.7109 39.7484C25.0162 33.0566 28.8134 26.8092 30.5363 22.7421C31.0047 21.7275 31.3643 20.6709 31.6069 19.5807C31.6738 19.2788 31.7073 19.1027 31.7156 19.044C31.8996 18.0545 32 17.0398 32 16.0335C31.9833 7.19497 24.8071 0 15.9916 0Z" fill="#1A3866"/>
<path d="M15.9998 28.4C22.7377 28.4 28.1998 22.9379 28.1998 16.2C28.1998 9.46213 22.7377 4 15.9998 4C9.26193 4 3.7998 9.46213 3.7998 16.2C3.7998 22.9379 9.26193 28.4 15.9998 28.4Z" fill="white"/>
<path fill-rule="evenodd" clip-rule="evenodd" d="M15.9996 26.2C21.2146 26.2 25.4972 22.208 25.9584 17.1131C25.9857 16.8124 25.7179 16.2 24.977 16.2C20.9269 16.2 14.9319 16.2 6.99214 16.2C6.26459 16.2 6.01397 16.8231 6.04215 17.129C6.51083 22.2163 10.79 26.2 15.9996 26.2Z" fill="#D80129"/>
</svg>
