<svg width="199" height="80" viewBox="0 0 199 80" fill="none" xmlns="http://www.w3.org/2000/svg">
<g filter="url(#filter0_d)">
<path d="M159 4H40C23.4315 4 10 17.4315 10 34C10 50.5685 23.4315 64 40 64H159C175.569 64 189 50.5685 189 34C189 17.4315 175.569 4 159 4Z" fill="black"/>
</g>
<path d="M159 4H40C23.4315 4 10 17.4315 10 34C10 50.5685 23.4315 64 40 64H159C175.569 64 189 50.5685 189 34C189 17.4315 175.569 4 159 4Z" fill="white"/>
<path d="M159 22C152.373 22 147 27.3726 147 34C147 40.6274 152.373 46 159 46C165.627 46 171 40.6274 171 34C171 27.3726 165.627 22 159 22ZM158.835 26.4C159.827 26.4 160.629 27.2021 160.629 28.1939C160.629 29.1856 159.827 29.9878 158.835 29.9878C157.843 29.9878 157.041 29.1856 157.041 28.1939C157.041 27.2021 157.843 26.4 158.835 26.4ZM161.636 41.6H156.364V39.4641H157.536V33.2461H157.43C156.842 33.2461 156.364 32.7704 156.364 32.1797C156.364 31.592 156.839 31.1133 157.43 31.1133H157.536H160.421H160.467H160.471V39.4641H161.636V41.6Z" fill="#1A3866"/>
<path d="M31.738 41H34.488V36.688L36.534 34.488L41.528 41H44.916L38.426 32.552L44.476 25.886H41.11L34.488 33.278V25.886H31.738V41ZM51.506 29.362C50.076 29.362 48.58 29.758 46.974 30.55L47.898 32.42C48.866 31.936 49.9 31.562 50.978 31.562C53.046 31.562 53.772 32.838 53.772 34.158V34.466C52.738 34.07 51.616 33.85 50.582 33.85C48.03 33.85 45.94 35.39 45.94 37.634C45.94 39.834 47.766 41.264 50.186 41.264C51.506 41.264 52.936 40.692 53.772 39.636V41H56.39V34.158C56.39 31.276 54.52 29.362 51.506 29.362ZM50.78 39.306C49.504 39.306 48.558 38.624 48.558 37.546C48.558 36.468 49.636 35.72 50.978 35.72C51.99 35.72 52.936 35.874 53.772 36.16V37.436C53.464 38.646 52.078 39.306 50.78 39.306ZM58.8343 41H68.4483V38.646H62.3323L68.3823 31.584L68.4043 29.626H58.9663V31.98H64.8623L58.8343 39.042V41ZM72.2403 27.91C73.0763 27.91 73.7583 27.184 73.7583 26.37C73.7583 25.556 73.0763 24.852 72.2403 24.852C71.3823 24.852 70.7003 25.556 70.7003 26.37C70.7003 27.184 71.3823 27.91 72.2403 27.91ZM70.8763 41H73.5603V29.626H70.8763V41ZM89.6607 29.362C87.9667 29.362 86.5367 30.198 85.9867 31.518C85.2827 30.176 83.9627 29.362 82.3567 29.362C80.9267 29.362 79.7607 30.066 79.1887 31.166V29.626H76.5047V41H79.1887V34.026C79.1887 32.64 80.2227 31.65 81.6747 31.65C82.9947 31.65 83.8967 32.706 83.8967 34.202V41H86.5147V34.026C86.5147 32.64 87.5267 31.65 89.0007 31.65C90.2987 31.65 91.2007 32.706 91.2007 34.202V41H93.8187V33.762C93.8187 31.188 92.0367 29.362 89.6607 29.362ZM98.086 27.91C98.922 27.91 99.604 27.184 99.604 26.37C99.604 25.556 98.922 24.852 98.086 24.852C97.228 24.852 96.546 25.556 96.546 26.37C96.546 27.184 97.228 27.91 98.086 27.91ZM96.722 41H99.406V29.626H96.722V41ZM107.674 38.888C106.046 38.888 104.858 37.788 104.528 36.226H113.108C113.108 32.024 111.062 29.362 107.542 29.362C104.308 29.362 101.756 31.87 101.756 35.28C101.756 38.778 104.44 41.264 107.696 41.264C109.346 41.264 111.326 40.56 112.316 39.504L110.622 37.744C109.984 38.404 108.73 38.888 107.674 38.888ZM107.652 31.738C109.258 31.738 110.226 32.75 110.534 34.18H104.55C104.946 32.684 106.156 31.738 107.652 31.738ZM118.185 31.826V29.626H115.501V41H118.185V35.258C118.185 33.102 119.813 31.65 122.255 31.65V29.362C120.385 29.362 118.911 30.308 118.185 31.826ZM123.782 41H133.396V38.646H127.28L133.33 31.584L133.352 29.626H123.914V31.98H129.81L123.782 39.042V41Z" fill="#1A3866"/>
<defs>
<filter id="filter0_d" x="0" y="0" width="199" height="80" filterUnits="userSpaceOnUse" color-interpolation-filters="sRGB">
<feFlood flood-opacity="0" result="BackgroundImageFix"/>
<feColorMatrix in="SourceAlpha" type="matrix" values="0 0 0 0 0 0 0 0 0 0 0 0 0 0 0 0 0 0 127 0"/>
<feOffset dy="6"/>
<feGaussianBlur stdDeviation="5"/>
<feColorMatrix type="matrix" values="0 0 0 0 0 0 0 0 0 0 0 0 0 0 0 0 0 0 0.0837795 0"/>
<feBlend mode="normal" in2="BackgroundImageFix" result="effect1_dropShadow"/>
<feBlend mode="normal" in="SourceGraphic" in2="effect1_dropShadow" result="shape"/>
</filter>
</defs>
</svg>
