<svg width="110" height="36" viewBox="0 0 110 36" fill="none" xmlns="http://www.w3.org/2000/svg">
<path d="M50.0994 22.4745L51.3441 24.1577C51.5078 24.3888 51.4751 24.7518 51.2458 24.9168C49.5426 26.237 47.8067 26.8971 45.6122 26.8971C39.3235 26.8971 37.4238 21.9795 37.4238 18.415C37.4238 14.9496 39.3235 9.96591 45.6122 9.96591C49.9029 9.96591 52.2939 12.7383 52.2939 16.9958C52.2939 17.5569 52.2612 18.25 52.1302 19.0421C52.0974 19.3391 51.8354 19.5701 51.5406 19.5701H41.387C41.649 21.1874 42.5989 23.4316 45.6122 23.4316C46.9223 23.4316 48.2652 23.0686 49.3789 22.3425C49.6081 22.2105 49.9357 22.2435 50.0994 22.4745ZM45.5795 13.3323C42.9592 13.3653 41.9766 14.8835 41.5508 16.4677H48.5928C48.6583 15.0816 47.9377 13.4314 45.5795 13.3323ZM65.7364 10.1969H69.1755C69.4047 10.1969 69.5358 10.461 69.4375 10.659L64.852 18.481L69.4375 26.237C69.5358 26.435 69.4047 26.6991 69.1755 26.6991H65.7036C65.3761 26.6991 65.0813 26.534 64.9175 26.237L62.723 22.1445L60.4958 26.237C60.332 26.534 60.0372 26.6991 59.7097 26.6991H56.2378C56.0086 26.6991 55.8775 26.435 55.9758 26.237L60.594 18.481L56.0086 10.659C55.8775 10.461 56.0413 10.1969 56.2706 10.1969H59.677C60.0045 10.1969 60.2993 10.362 60.463 10.659L62.723 14.8175L64.9503 10.659C65.114 10.362 65.4088 10.1969 65.7364 10.1969ZM81.0785 26.9631C79.9649 26.8971 78.9823 26.6661 78.1307 26.336V32.7718C78.1307 33.0689 77.9014 33.2999 77.6066 33.2999H74.7898C74.495 33.2999 74.2658 33.0689 74.2658 32.7718V10.725C74.2658 10.428 74.495 10.1969 74.7898 10.1969H76.2637C76.5912 10.1969 76.8533 10.395 76.9515 10.692L77.2463 11.4841C78.5565 10.461 80.1614 9.93291 81.7663 9.93291C87.8585 9.93291 89.7582 14.9165 89.7582 18.448C89.7582 21.8144 87.9895 26.6661 82.1266 26.9631H81.0785ZM81.6025 13.2993C79.8666 13.2993 78.753 14.1244 78.1307 15.1146V22.6725C78.9823 23.2666 80.2596 23.5967 81.3405 23.5967C85.1727 23.5967 85.926 19.9662 85.926 18.448C85.926 17.1608 85.4019 13.2993 81.6025 13.2993ZM101.844 9.8999C108.133 9.8999 110 14.9496 110 18.415C110 21.9795 108.133 26.9301 101.844 26.9301C95.5555 26.9301 93.6886 21.9795 93.6886 18.415C93.6886 14.9496 95.5555 9.8999 101.844 9.8999ZM101.844 23.5637C105.611 23.5637 106.168 19.7022 106.168 18.415C106.168 17.1278 105.611 13.2663 101.844 13.2663C98.0448 13.2663 97.5207 17.1278 97.5207 18.415C97.5207 19.7022 98.0448 23.5637 101.844 23.5637Z" fill="#1A3866"/>
<path d="M14.3285 0C6.42984 0 0 6.47547 0 14.4302C0 15.3358 0.0824338 16.2491 0.254796 17.1396C0.26229 17.1925 0.292266 17.3509 0.352217 17.6226C0.569543 18.5962 0.891785 19.5547 1.31145 20.4679C2.85521 24.1283 6.24999 29.7509 13.699 35.7736C13.8864 35.9245 14.1112 36 14.336 36C14.5608 36 14.7856 35.9245 14.973 35.7736C22.4145 29.7509 25.8168 24.1283 27.3605 20.4679C27.7802 19.5547 28.1025 18.6038 28.3198 17.6226C28.3797 17.3509 28.4097 17.1925 28.4172 17.1396C28.5821 16.2491 28.672 15.3358 28.672 14.4302C28.657 6.47547 22.2272 0 14.3285 0Z" fill="#1A3866"/>
<path d="M14.3355 25.5601C20.3726 25.5601 25.2667 20.6442 25.2667 14.5801C25.2667 8.51601 20.3726 3.6001 14.3355 3.6001C8.29836 3.6001 3.4043 8.51601 3.4043 14.5801C3.4043 20.6442 8.29836 25.5601 14.3355 25.5601Z" fill="white"/>
<path fill-rule="evenodd" clip-rule="evenodd" d="M14.3358 23.5801C19.0085 23.5801 22.8457 19.9873 23.259 15.4019C23.2834 15.1312 23.0434 14.5801 22.3796 14.5801C18.7507 14.5801 13.3792 14.5801 6.26519 14.5801C5.61331 14.5801 5.38875 15.1409 5.414 15.4162C5.83394 19.9948 9.66806 23.5801 14.3358 23.5801Z" fill="#D80129"/>
</svg>
