<svg width="198" height="80" viewBox="0 0 198 80" fill="none" xmlns="http://www.w3.org/2000/svg">
<g filter="url(#filter0_d)">
<path d="M158 4H40C23.4315 4 10 17.4315 10 34C10 50.5685 23.4315 64 40 64H158C174.569 64 188 50.5685 188 34C188 17.4315 174.569 4 158 4Z" fill="black"/>
</g>
<path d="M158 4H40C23.4315 4 10 17.4315 10 34C10 50.5685 23.4315 64 40 64H158C174.569 64 188 50.5685 188 34C188 17.4315 174.569 4 158 4Z" fill="white"/>
<path d="M158 22C151.373 22 146 27.3726 146 34C146 40.6274 151.373 46 158 46C164.627 46 170 40.6274 170 34C170 27.3726 164.627 22 158 22ZM157.835 26.4C158.827 26.4 159.629 27.2021 159.629 28.1939C159.629 29.1856 158.827 29.9878 157.835 29.9878C156.843 29.9878 156.041 29.1856 156.041 28.1939C156.041 27.2021 156.843 26.4 157.835 26.4ZM160.636 41.6H155.364V39.4641H156.536V33.2461H156.43C155.842 33.2461 155.364 32.7704 155.364 32.1797C155.364 31.592 155.839 31.1133 156.43 31.1133H156.536H159.421H159.467H159.471V39.4641H160.636V41.6Z" fill="#1A3866"/>
<path d="M38.932 41.264C43.222 41.264 46.852 37.678 46.852 33.432C46.852 29.186 43.222 25.622 38.932 25.622C34.62 25.622 30.99 29.186 30.99 33.432C30.99 37.678 34.62 41.264 38.932 41.264ZM38.932 38.756C36.138 38.756 33.784 36.336 33.784 33.432C33.784 30.55 36.138 28.13 38.932 28.13C41.704 28.13 44.036 30.55 44.036 33.432C44.036 36.336 41.704 38.756 38.932 38.756ZM49.2845 41H51.9685V25.622H49.2845V41ZM63.5809 25.622V31.386C62.6789 30.11 61.3149 29.362 59.6429 29.362C56.6289 29.362 54.4289 31.826 54.4289 35.302C54.4289 38.8 56.6289 41.264 59.6429 41.264C61.3149 41.264 62.6789 40.516 63.5809 39.24V41H66.2649V25.622H63.5809ZM60.3689 38.976C58.4549 38.976 57.0909 37.436 57.0909 35.302C57.0909 33.168 58.4549 31.65 60.3689 31.65C62.2609 31.65 63.5809 33.168 63.5809 35.302C63.5809 37.436 62.2609 38.976 60.3689 38.976ZM79.675 41H82.403V28.394H87.243V25.886H74.835V28.394H79.675V41ZM95.0033 41.264C98.3033 41.264 101.097 38.536 101.097 35.302C101.097 32.068 98.3033 29.362 95.0033 29.362C91.7033 29.362 88.9093 32.068 88.9093 35.302C88.9093 38.536 91.7033 41.264 95.0033 41.264ZM95.0033 38.976C93.1113 38.976 91.5273 37.304 91.5273 35.302C91.5273 33.322 93.1113 31.65 95.0033 31.65C96.8733 31.65 98.4573 33.322 98.4573 35.302C98.4573 37.304 96.8733 38.976 95.0033 38.976ZM105.814 41H108.256L110.676 33.212L113.118 41H115.56L119.388 29.626H116.704L114.35 37.392L111.798 29.626H109.554L107.024 37.392L104.648 29.626H101.964L105.814 41ZM127.569 29.362C126.073 29.362 124.753 30.088 124.049 31.144V29.626H121.365V41H124.049V33.806C124.225 32.596 125.391 31.65 126.799 31.65C128.207 31.65 129.197 32.75 129.197 34.29V41H131.793V33.762C131.793 31.188 130.055 29.362 127.569 29.362Z" fill="#1A3866"/>
<defs>
<filter id="filter0_d" x="0" y="0" width="198" height="80" filterUnits="userSpaceOnUse" color-interpolation-filters="sRGB">
<feFlood flood-opacity="0" result="BackgroundImageFix"/>
<feColorMatrix in="SourceAlpha" type="matrix" values="0 0 0 0 0 0 0 0 0 0 0 0 0 0 0 0 0 0 127 0"/>
<feOffset dy="6"/>
<feGaussianBlur stdDeviation="5"/>
<feColorMatrix type="matrix" values="0 0 0 0 0 0 0 0 0 0 0 0 0 0 0 0 0 0 0.0837795 0"/>
<feBlend mode="normal" in2="BackgroundImageFix" result="effect1_dropShadow"/>
<feBlend mode="normal" in="SourceGraphic" in2="effect1_dropShadow" result="shape"/>
</filter>
</defs>
</svg>
